<svg xmlns="http://www.w3.org/2000/svg" viewBox="0 0 218.4 47.13"><defs><style>.cls-1{fill:#fff;}.cls-2{fill:#ef3e42;}</style></defs><g id="Layer_2" data-name="Layer 2"><g id="Layer_1-2" data-name="Layer 1"><path class="cls-1" d="M29.51,36.33c-2.88.84-5.84,1.9-9.43,1.9s-6.54-1.06-9.42-1.9V2.43H1.24V41a37.31,37.31,0,0,0,18.84,4.85A37.51,37.51,0,0,0,38.93,41V2.43H29.51Z"/><path class="cls-1" d="M73.61,10.73V17H83V6A37.32,37.32,0,0,0,64.2,1.24,37.22,37.22,0,0,0,45.42,6V41.11A37.93,37.93,0,0,0,64.2,45.82,38,38,0,0,0,83,41.11V28.31H73.61v8a32.14,32.14,0,0,1-9.41,1.33,31.79,31.79,0,0,1-9.36-1.33V10.73A31.78,31.78,0,0,1,64.2,9.39,32.13,32.13,0,0,1,73.61,10.73Z"/><path class="cls-1" d="M89.71,6V41.11a38.06,38.06,0,0,0,18.85,4.71,38.26,38.26,0,0,0,18.85-4.71V6a40.08,40.08,0,0,0-37.7,0ZM118,36.33a34,34,0,0,1-18.84,0V10.73a30.28,30.28,0,0,1,9.42-1.34A32.5,32.5,0,0,1,118,10.73Z"/><polygon class="cls-1" points="162.53 32.32 162.32 32.32 143.61 2.43 133.56 2.43 133.56 44.55 142.07 44.55 142.07 14.67 142.34 14.67 161.05 44.55 171.1 44.55 171.1 2.43 162.53 2.43 162.53 32.32"/><polygon class="cls-1" points="206.18 32.32 205.97 32.32 187.27 2.43 177.21 2.43 177.21 44.55 185.72 44.55 185.72 14.67 186 14.67 204.7 44.55 214.76 44.55 214.76 2.43 206.18 2.43 206.18 32.32"/><path class="cls-2" d="M28.27,1.2V35.4l-.27.08A26.6,26.6,0,0,1,20.08,37a26.65,26.65,0,0,1-7.91-1.51l-.27-.08V1.2H0V41.75l.61.36a38.41,38.41,0,0,0,19.47,5,38.88,38.88,0,0,0,19.48-5l.61-.36V1.2ZM38.93,41a37.51,37.51,0,0,1-18.85,4.85A37.31,37.31,0,0,1,1.24,41V2.43h9.42v33.9c2.88.84,5.84,1.9,9.42,1.9s6.55-1.06,9.43-1.9V2.43h9.42Z"/><path class="cls-2" d="M64.2,0A38.21,38.21,0,0,0,44.79,5l-.61.36V41.82l.62.36a39.36,39.36,0,0,0,19.4,4.88,39.06,39.06,0,0,0,19.46-4.88l.62-.36V27.07H72.37v8.32a30.9,30.9,0,0,1-8.17,1,30.73,30.73,0,0,1-8.12-1V11.67a32.41,32.41,0,0,1,16.29,0v6.56H84.28V5.31L83.67,5A38.35,38.35,0,0,0,64.2,0ZM54.84,10.73v25.6a31.79,31.79,0,0,0,9.36,1.33,32.14,32.14,0,0,0,9.41-1.33v-8H83v12.8A38,38,0,0,1,64.2,45.82a37.93,37.93,0,0,1-18.78-4.71V6A37.22,37.22,0,0,1,64.2,1.24,37.32,37.32,0,0,1,83,6V17H73.61V10.73A32.13,32.13,0,0,0,64.2,9.39,31.78,31.78,0,0,0,54.84,10.73Z"/><path class="cls-2" d="M108.56,0A39.48,39.48,0,0,0,89.1,4.88l-.62.36V41.82l.62.36a39,39,0,0,0,19.46,4.88A39.51,39.51,0,0,0,128,42.18l.63-.36V5.24L128,4.88A39,39,0,0,0,108.56,0Zm18.85,41.11a38.26,38.26,0,0,1-18.85,4.71,38.06,38.06,0,0,1-18.85-4.71V6a40.08,40.08,0,0,1,37.7,0Z"/><path class="cls-2" d="M99.14,10.73v25.6a34,34,0,0,0,18.84,0V10.73a32.5,32.5,0,0,0-9.42-1.34A30.28,30.28,0,0,0,99.14,10.73Zm17.6,24.65a31.2,31.2,0,0,1-8.18,1,31.25,31.25,0,0,1-8.18-1V11.66a29.11,29.11,0,0,1,8.18-1,31.63,31.63,0,0,1,8.18,1Z"/><path class="cls-2" d="M161.29,1.2V28.34L144.3,1.2h-12V45.79h11V18.54l17.05,27.25h12V1.2Zm9.82,43.35H161.05L142.34,14.67h-.27V44.55h-8.51V2.43h10.05l18.71,29.89h.21V2.43h8.58Z"/><path class="cls-2" d="M204.94,1.2V28.34L188,1.2H176V45.79h11V18.54l17,27.25h12V1.2Zm9.82,43.35H204.7L186,14.67h-.28V44.55h-8.51V2.43h10.06L206,32.32h.21V2.43h8.58Z"/><path class="cls-1" d="M217.41,44a.83.83,0,1,1-.83.83A.83.83,0,0,1,217.41,44Zm0,1.81a1,1,0,1,0-1-1A1,1,0,0,0,217.41,45.79Zm.17-.93a.29.29,0,0,0,.3-.31c0-.23-.19-.29-.39-.29H217v1.11h.16v-.51h.2l.29.51h.18Zm-.12-.44c.14,0,.25,0,.25.15s-.2.13-.35.13h-.17v-.28Z"/></g></g></svg>